<svg width="512" height="512" viewBox="0 0 512 512" fill="none" xmlns="http://www.w3.org/2000/svg">
<g clip-path="url(#clip0_334_806)">
<path d="M329.2 226.56H364.72L355.68 268.8H320L329.2 226.56Z" fill="#05930C"/>
<path fill-rule="evenodd" clip-rule="evenodd" d="M512 256C512 397.385 397.385 512 256 512C114.615 512 0 397.385 0 256C0 114.615 114.615 0 256 0C397.385 0 512 114.615 512 256ZM187.44 360.24C206.794 360.939 226.024 356.873 243.44 348.4L243.52 325.36C227.594 334.657 209.395 339.338 190.96 338.88C170.967 339.667 151.626 331.691 138 317.04C123.955 300.801 116.731 279.761 117.84 258.32C116.713 235.632 124.46 213.396 139.44 196.32C153.889 180.876 174.301 172.419 195.44 173.12C212.22 172.882 228.771 177.047 243.44 185.2V160C228.315 154.104 212.141 151.381 195.92 152C168.151 151.037 141.261 161.81 121.84 181.68C101.972 202.729 91.4679 230.922 92.7196 259.84C91.5023 286.525 100.777 312.626 118.56 332.56C136.456 351.285 161.563 361.374 187.44 360.24ZM418.88 226.56L422.08 211.68L385.12 211.76L396.96 155.2H379.68L367.6 211.76H332.16L344 155.2H326.16L314.32 211.76H275.36L272.4 226.64H311.36L302.8 268.8H265.52L262.72 283.68H299.84L288 339.68H305.28L317.12 283.68H352.32L340.24 339.68H357.92L370.32 283.68H409.04L412.8 268.8H373.28L382.08 226.56H418.88Z" fill="#05930C"/>
</g>
<defs>
<clipPath id="clip0_334_806">
<rect width="512" height="512" fill="white"/>
</clipPath>
</defs>
</svg>
