<svg xmlns="http://www.w3.org/2000/svg" height="48px" viewBox="0 -960 960 960" width="48px" fill="#e8eaed"><path d="M140-160q-24 0-42-18t-18-42v-520q0-24 18-42t42-18h680q24 0 42 18t18 42v520q0 24-18 42t-42 18H140Zm340-302L140-685v465h680v-465L480-462Zm0-60 336-218H145l335 218ZM140-685v-55 520-465Z"
/>
  <style>
    .link__social-- {
      fill:red;
    }
    /* when loaded from 'right_arrow.svg#hover' */
    #hover:target ~ .slick_next_arrow {
      fill:green;
    }
  </style>
  <!-- here is our triggerer -->
  <g id="hover"></g>
  <!-- the visual content -->
  <path class="slick_next_arrow" hover="fill:green" fill-rule="evenodd" clip-rule="evenodd" d="M3.73141 1.20959C2.95311 -0.00927037 1.3341 -0.366415 0.115239 0.411883L25.5894 40.3058L0 80.3802C1.21886 81.1585 2.83787 80.8014 3.61617 79.5825L27.4729 42.2216C27.7642 41.7653 27.8965 41.2531 27.884 40.7498C28.1017 40.0409 28.0185 39.2445 27.5881 38.5705L3.73141 1.20959Z"/>
</svg>